<svg xmlns="http://www.w3.org/2000/svg" viewBox="0 0 260 200" role="img" aria-labelledby="title desc">
  <title id="title">Crepa de vainilla</title>
  <desc id="desc">Ilustración de una crepa de vainilla con salsa de caramelo.</desc>
  <defs>
    <linearGradient id="crepe" x1="0%" y1="0%" x2="100%" y2="100%">
      <stop offset="0%" stop-color="#fef3c7" />
      <stop offset="100%" stop-color="#facc15" />
    </linearGradient>
    <linearGradient id="caramelo" x1="0%" y1="0%" x2="100%" y2="0%">
      <stop offset="0%" stop-color="#f97316" />
      <stop offset="100%" stop-color="#c2410c" />
    </linearGradient>
    <filter id="shadow" x="-20%" y="-20%" width="140%" height="140%">
      <feDropShadow dx="0" dy="8" stdDeviation="10" flood-color="#f59e0b" flood-opacity="0.35" />
    </filter>
  </defs>
  <rect width="260" height="200" rx="28" fill="#fff8ed" />
  <g filter="url(#shadow)" transform="translate(26 28)">
    <ellipse cx="104" cy="124" rx="98" ry="34" fill="#fde68a" opacity="0.35" />
    <path d="M104 14c-42 0-72 26-72 58 0 34 20 60 48 68 6 2 12 2 24 2s18 0 24-2c28-8 48-34 48-68 0-32-30-58-72-58z" fill="url(#crepe)" stroke="#f59e0b" stroke-width="4" />
    <path d="M60 80c16 10 44 14 72 12 22-2 42-8 56-16" fill="none" stroke="url(#caramelo)" stroke-width="14" stroke-linecap="round" opacity="0.6" />
    <path d="M54 96c18 10 46 16 72 14 24-2 46-8 62-18" fill="none" stroke="#f97316" stroke-width="10" stroke-linecap="round" opacity="0.4" />
    <path d="M72 44c10-10 20-14 32-14s22 4 32 14" fill="none" stroke="#fbbf24" stroke-width="10" stroke-linecap="round" opacity="0.45" />
    <circle cx="78" cy="60" r="10" fill="#fde047" />
    <circle cx="126" cy="48" r="12" fill="#facc15" />
    <circle cx="150" cy="66" r="10" fill="#fef08a" stroke="#facc15" stroke-width="3" />
  </g>
</svg>
