<svg xmlns="http://www.w3.org/2000/svg" viewBox="0 0 260 200" role="img" aria-labelledby="title desc">
  <title id="title">Crepa cacao</title>
  <desc id="desc">Ilustración plana de una crepa rellena de cacao y chocolate.</desc>
  <defs>
    <linearGradient id="crepe" x1="0%" y1="0%" x2="100%" y2="100%">
      <stop offset="0%" stop-color="#f5d0a4" />
      <stop offset="100%" stop-color="#d97706" />
    </linearGradient>
    <linearGradient id="choco" x1="0%" y1="0%" x2="100%" y2="0%">
      <stop offset="0%" stop-color="#7c2d12" />
      <stop offset="100%" stop-color="#9a3412" />
    </linearGradient>
    <filter id="shadow" x="-20%" y="-20%" width="140%" height="140%">
      <feDropShadow dx="0" dy="8" stdDeviation="10" flood-color="#f59e0b" flood-opacity="0.35" />
    </filter>
  </defs>
  <rect width="260" height="200" rx="28" fill="#fff8ed" />
  <g filter="url(#shadow)" transform="translate(30 30)">
    <ellipse cx="100" cy="120" rx="96" ry="32" fill="#fde68a" opacity="0.35" />
    <path d="M100 12c-42 0-76 30-76 68 0 30 16 54 40 62 4 1 12 2 36 2s32-1 36-2c24-8 40-32 40-62 0-38-34-68-76-68z" fill="url(#crepe)" stroke="#f59e0b" stroke-width="4" />
    <path d="M60 70c16 16 44 24 76 20 18-2 34-8 46-16" fill="none" stroke="url(#choco)" stroke-width="12" stroke-linecap="round" opacity="0.7" />
    <path d="M52 90c16 12 44 18 72 16 24-2 44-8 60-18" fill="none" stroke="#7c2d12" stroke-width="8" stroke-linecap="round" opacity="0.5" />
    <circle cx="70" cy="56" r="10" fill="#fca5a5" />
    <circle cx="120" cy="40" r="12" fill="#f97316" opacity="0.65" />
    <circle cx="152" cy="64" r="10" fill="#fde68a" stroke="#f59e0b" stroke-width="3" />
  </g>
</svg>
