<svg xmlns="http://www.w3.org/2000/svg" viewBox="0 0 260 200" role="img" aria-labelledby="title desc">
  <title id="title">Crepa frutos rojos</title>
  <desc id="desc">Ilustración plana de crepa con frutas rojas frescas.</desc>
  <defs>
    <linearGradient id="crepe" x1="0%" y1="0%" x2="100%" y2="100%">
      <stop offset="0%" stop-color="#fde68a" />
      <stop offset="100%" stop-color="#f59e0b" />
    </linearGradient>
    <linearGradient id="berries" x1="0%" y1="0%" x2="0%" y2="100%">
      <stop offset="0%" stop-color="#fb7185" />
      <stop offset="100%" stop-color="#e11d48" />
    </linearGradient>
    <filter id="shadow" x="-20%" y="-20%" width="140%" height="140%">
      <feDropShadow dx="0" dy="8" stdDeviation="10" flood-color="#f59e0b" flood-opacity="0.35" />
    </filter>
  </defs>
  <rect width="260" height="200" rx="28" fill="#fff8ed" />
  <g filter="url(#shadow)" transform="translate(24 30)">
    <ellipse cx="106" cy="122" rx="100" ry="34" fill="#fde68a" opacity="0.35" />
    <path d="M106 18c-40 0-70 26-70 58 0 32 18 56 44 66 5 2 12 2 26 2s21 0 26-2c26-10 44-34 44-66 0-32-30-58-70-58z" fill="url(#crepe)" stroke="#f59e0b" stroke-width="4" />
    <path d="M60 82c12 12 40 22 70 22s58-10 70-22" fill="none" stroke="#f97316" stroke-width="10" stroke-linecap="round" opacity="0.35" />
    <g transform="translate(40 38)">
      <ellipse cx="28" cy="48" rx="22" ry="18" fill="url(#berries)" />
      <ellipse cx="60" cy="30" rx="18" ry="16" fill="#fb7185" />
      <ellipse cx="84" cy="50" rx="20" ry="18" fill="#f472b6" />
      <ellipse cx="110" cy="36" rx="16" ry="14" fill="#fb7185" />
      <ellipse cx="130" cy="58" rx="22" ry="18" fill="#f472b6" />
      <circle cx="28" cy="40" r="6" fill="#fee2e2" />
      <circle cx="60" cy="24" r="5" fill="#ffe4e6" />
      <circle cx="110" cy="30" r="4" fill="#ffe4e6" />
      <circle cx="130" cy="50" r="5" fill="#ffe4e6" />
    </g>
  </g>
</svg>
