<svg xmlns="http://www.w3.org/2000/svg" viewBox="0 0 180 180" role="img" aria-labelledby="title desc">
  <title id="title">Isotipo Crepería O&amp;E</title>
  <desc id="desc">Icono circular con una crepa enrollada y destellos cálidos representando la marca Crepería O&amp;E.</desc>
  <defs>
    <linearGradient id="mark-bg" x1="0%" y1="0%" x2="100%" y2="100%">
      <stop offset="0%" stop-color="#fff7ed" />
      <stop offset="100%" stop-color="#fde68a" />
    </linearGradient>
    <linearGradient id="mark-fill" x1="0%" y1="0%" x2="0%" y2="100%">
      <stop offset="0%" stop-color="#f97316" />
      <stop offset="100%" stop-color="#ea580c" />
    </linearGradient>
    <linearGradient id="mark-cone" x1="0%" y1="0%" x2="100%" y2="100%">
      <stop offset="0%" stop-color="#fcd34d" />
      <stop offset="100%" stop-color="#d97706" />
    </linearGradient>
    <filter id="mark-shadow" x="-15%" y="-15%" width="130%" height="130%">
      <feDropShadow dx="0" dy="6" stdDeviation="6" flood-color="#f59e0b" flood-opacity="0.4" />
    </filter>
  </defs>
  <g filter="url(#mark-shadow)">
    <circle cx="90" cy="90" r="78" fill="url(#mark-bg)" />
  </g>
  <path d="M90 42c-18 0-32 10-32 25 0 8 4 15 11 20l-5 22c-0.8 3.4 2.4 6.4 5.7 5.5l20.3-6.3 20.3 6.3c3.3 1 6.5-2.1 5.7-5.5l-5-22c7-5 11-12 11-20 0-15-14-25-32-25z" fill="#fff" stroke="#f97316" stroke-width="4" stroke-linejoin="round" />
  <path d="M74 69c3.6-3.3 8.2-5 16-5 7.8 0 12.4 1.7 16 5" fill="none" stroke="#f97316" stroke-width="5" stroke-linecap="round" />
  <path d="M70 80c4.7-4.9 11.6-7.3 20-7.3s15.3 2.4 20 7.3" fill="none" stroke="#f97316" stroke-width="5" stroke-linecap="round" />
  <path d="M66 90c5.8-6.8 14.5-10.3 24-10.3s18.2 3.5 24 10.3" fill="none" stroke="#f97316" stroke-width="5" stroke-linecap="round" />
  <path d="M80 108l10 5 10-5 12 4-22 19-22-19z" fill="url(#mark-cone)" stroke="#b45309" stroke-width="3" stroke-linejoin="round" />
</svg>
