<svg xmlns="http://www.w3.org/2000/svg" viewBox="0 0 1024 1024">
  <defs>
    <linearGradient id="pancake" x1="0" x2="0" y1="0" y2="1">
      <stop offset="0%" stop-color="#f6d58f" />
      <stop offset="100%" stop-color="#e6a959" />
    </linearGradient>
    <linearGradient id="pancakeShadow" x1="0" x2="0" y1="0" y2="1">
      <stop offset="0%" stop-color="#f9e4b7" />
      <stop offset="100%" stop-color="#d8933c" />
    </linearGradient>
    <linearGradient id="chocolate" x1="0" x2="0" y1="0" y2="1">
      <stop offset="0%" stop-color="#5c2a1a" />
      <stop offset="100%" stop-color="#2f140b" />
    </linearGradient>
    <radialGradient id="berry" cx="50%" cy="40%" r="60%">
      <stop offset="0%" stop-color="#b4062b" />
      <stop offset="100%" stop-color="#7a0319" />
    </radialGradient>
    <radialGradient id="blueberry" cx="45%" cy="35%" r="60%">
      <stop offset="0%" stop-color="#4c6ac2" />
      <stop offset="100%" stop-color="#2a3b73" />
    </radialGradient>
    <linearGradient id="leaf" x1="0" x2="1" y1="0" y2="1">
      <stop offset="0%" stop-color="#62b44a" />
      <stop offset="100%" stop-color="#2f7b21" />
    </linearGradient>
    <filter id="shadow" x="-10%" y="-10%" width="120%" height="140%">
      <feDropShadow dx="0" dy="18" stdDeviation="16" flood-color="#b88a4c" flood-opacity="0.35" />
    </filter>
  </defs>
  <rect width="1024" height="1024" fill="#ffffff" rx="80" />
  <path
    d="M 982.000 512.000 Q 956.047 541.104 928.407 566.821 Q 948.449 598.815 965.985 633.645 Q 933.384 655.041 900.029 672.727 Q 911.108 708.818 919.032 747.000 Q 882.004 759.229 845.208 767.680 Q 846.569 805.409 844.340 844.340 Q 805.409 846.569 767.680 845.208 Q 759.229 882.004 747.000 919.032 Q 708.818 911.108 672.727 900.029 Q 655.041 933.384 633.645 965.985 Q 598.815 948.449 566.821 928.407 Q 541.104 956.047 512.000 982.000 Q 482.896 956.047 457.179 928.407 Q 425.185 948.449 390.355 965.985 Q 368.959 933.384 351.273 900.029 Q 315.182 911.108 277.000 919.032 Q 264.771 882.004 256.320 845.208 Q 218.591 846.569 179.660 844.340 Q 177.431 805.409 178.792 767.680 Q 141.996 759.229 104.968 747.000 Q 112.892 708.818 123.971 672.727 Q 90.616 655.041 58.015 633.645 Q 75.551 598.815 95.593 566.821 Q 67.953 541.104 42.000 512.000 Q 67.953 482.896 95.593 457.179 Q 75.551 425.185 58.015 390.355 Q 90.616 368.959 123.971 351.273 Q 112.892 315.182 104.968 277.000 Q 141.996 264.771 178.792 256.320 Q 177.431 218.591 179.660 179.660 Q 218.591 177.431 256.320 178.792 Q 264.771 141.996 277.000 104.968 Q 315.182 112.892 351.273 123.971 Q 368.959 90.616 390.355 58.015 Q 425.185 75.551 457.179 95.593 Q 482.896 67.953 512.000 42.000 Q 541.104 67.953 566.821 95.593 Q 598.815 75.551 633.645 58.015 Q 655.041 90.616 672.727 123.971 Q 708.818 112.892 747.000 104.968 Q 759.229 141.996 767.680 178.792 Q 805.409 177.431 844.340 179.660 Q 846.569 218.591 845.208 256.320 Q 882.004 264.771 919.032 277.000 Q 911.108 315.182 900.029 351.273 Q 933.384 368.959 965.985 390.355 Q 948.449 425.185 928.407 457.179 Q 956.047 482.896 982.000 512.000 Z"
    fill="none"
    stroke="#1d1d1d"
    stroke-width="20"
  />
  <circle cx="512" cy="512" r="360" fill="#ffffff" stroke="#1d1d1d" stroke-width="8" />
  <g filter="url(#shadow)">
    <ellipse cx="512" cy="646" rx="220" ry="48" fill="#d27c2d" opacity="0.35" />
  </g>
  <g transform="translate(0,40)">
    <path d="M302 590c70 60 360 60 420 0 12-12 0-32-18-34-32-4-356-4-386 0-20 2-34 22-16 34z" fill="url(#pancake)" stroke="#c37b2f" stroke-width="6" />
    <path d="M322 544c66 56 324 56 390 0 12-10 2-30-16-32-60-8-296-8-348 0-20 2-32 20-26 32z" fill="url(#pancakeShadow)" stroke="#c37b2f" stroke-width="6" />
    <path d="M340 498c56 46 292 46 352 0 12-10 6-28-10-30-70-10-262-10-320 0-18 2-32 20-22 30z" fill="url(#pancake)" stroke="#c37b2f" stroke-width="6" />
    <path d="M360 462c40 34 250 34 306 0 14-8 12-26 0-28-62-10-220-10-276 0-16 2-22 20-30 28z" fill="url(#pancakeShadow)" stroke="#c37b2f" stroke-width="6" />
    <path d="M392 432c30 24 200 24 244 0 8-4 12-18 4-22-44-18-202-18-252 0-10 4-8 18 4 22z" fill="url(#pancake)" stroke="#c37b2f" stroke-width="6" />
    <path d="M420 404c20 12 150 12 184 0 14-6 12-20 4-26-26-18-160-18-188 0-10 6-12 20 0 26z" fill="url(#pancakeShadow)" stroke="#c37b2f" stroke-width="6" />
    <path d="M436 374c16 10 132 10 160 0 10-4 14-18 8-24-20-16-144-16-172 0-8 6-6 20 4 24z" fill="url(#pancake)" stroke="#c37b2f" stroke-width="6" />
  </g>
  <path d="M408 436c76 26 166 24 236-6 32-14 78 58 2 98-62 32-86 68-78 104 6 22-52 46-102 14-52-34-92-30-120-12-36 22-66-32-18-68 50-38 40-98 80-126z" fill="url(#chocolate)" stroke="#38160b" stroke-width="6" />
  <g transform="translate(46,-40)">
    <path d="M568 366c32-42 76-70 102-68 10 0 18 12 12 22-16 26-54 54-90 66-10 4-20-6-24-20z" fill="url(#leaf)" stroke="#1c5814" stroke-width="6" />
    <path d="M612 368c24-32 54-52 72-52 8 0 14 10 10 18-10 20-38 40-64 50-8 2-16-4-18-16z" fill="url(#leaf)" stroke="#1c5814" stroke-width="6" />
  </g>
  <g transform="translate(-40,-54)">
    <ellipse cx="560" cy="356" rx="86" ry="80" fill="url(#berry)" stroke="#68061a" stroke-width="8" />
    <path d="M516 320c14 12 54 12 70 0" fill="none" stroke="#f4a3b2" stroke-width="10" stroke-linecap="round" />
    <circle cx="516" cy="340" r="12" fill="#f9c5c5" opacity="0.4" />
    <circle cx="592" cy="332" r="10" fill="#f9c5c5" opacity="0.3" />
  </g>
  <g transform="translate(128,-10)">
    <ellipse cx="520" cy="350" rx="64" ry="60" fill="url(#blueberry)" stroke="#182854" stroke-width="8" />
    <ellipse cx="460" cy="336" rx="52" ry="50" fill="url(#blueberry)" stroke="#182854" stroke-width="8" />
    <circle cx="492" cy="322" r="14" fill="#91a8ff" opacity="0.35" />
    <circle cx="440" cy="318" r="12" fill="#91a8ff" opacity="0.3" />
  </g>
  <text x="512" y="212" text-anchor="middle" font-size="140" font-weight="700" font-family="'Playfair Display', 'Georgia', serif" fill="#1d1d1d">Crepas</text>
  <text x="512" y="884" text-anchor="middle" font-size="120" font-family="'Playfair Display', 'Georgia', serif" fill="#1d1d1d">O &amp; E</text>
</svg>
