<svg xmlns="http://www.w3.org/2000/svg" viewBox="0 0 240 240" role="img" aria-labelledby="title desc">
  <title id="title">Paleta de frutos</title>
  <desc id="desc">Ilustración de una paleta helada artesanal con frutas.</desc>
  <defs>
    <linearGradient id="background" x1="0%" y1="0%" x2="100%" y2="100%">
      <stop offset="0%" stop-color="#fff8ed" />
      <stop offset="100%" stop-color="#fde68a" />
    </linearGradient>
    <linearGradient id="paleta" x1="0%" y1="0%" x2="0%" y2="100%">
      <stop offset="0%" stop-color="#fb7185" />
      <stop offset="100%" stop-color="#f97316" />
    </linearGradient>
    <linearGradient id="stick" x1="0%" y1="0%" x2="0%" y2="100%">
      <stop offset="0%" stop-color="#fcd34d" />
      <stop offset="100%" stop-color="#d97706" />
    </linearGradient>
    <filter id="shadow" x="-20%" y="-20%" width="140%" height="140%">
      <feDropShadow dx="0" dy="10" stdDeviation="12" flood-color="#f59e0b" flood-opacity="0.3" />
    </filter>
  </defs>
  <rect width="240" height="240" rx="30" fill="url(#background)" />
  <g filter="url(#shadow)" transform="translate(70 20)">
    <rect x="32" y="150" width="24" height="70" rx="10" fill="url(#stick)" />
    <rect x="0" y="0" width="120" height="180" rx="36" fill="url(#paleta)" />
    <rect x="12" y="12" width="96" height="156" rx="28" fill="#fff5f7" opacity="0.6" />
    <circle cx="46" cy="60" r="16" fill="#fca5a5" />
    <circle cx="80" cy="48" r="12" fill="#fdba74" />
    <circle cx="70" cy="92" r="14" fill="#fb7185" />
    <circle cx="40" cy="110" r="12" fill="#fde047" />
    <circle cx="84" cy="130" r="14" fill="#facc15" />
    <path d="M24 80c12 8 44 8 56 0" fill="none" stroke="#f97316" stroke-width="8" stroke-linecap="round" opacity="0.45" />
    <path d="M26 112c12 6 44 6 56 0" fill="none" stroke="#f97316" stroke-width="8" stroke-linecap="round" opacity="0.35" />
  </g>
</svg>
